<svg id="visual" viewBox="0 0 2560 1720" width="2560" height="1720" xmlns="http://www.w3.org/2000/svg" xmlns:xlink="http://www.w3.org/1999/xlink" version="1.1"><rect x="0" y="0" width="2560" height="1720" fill="#ffffff"></rect><defs><linearGradient id="grad1_0" x1="32.8%" y1="0%" x2="100%" y2="100%"><stop offset="20.232558139534884%" stop-color="#ffffff" stop-opacity="1"></stop><stop offset="79.76744186046511%" stop-color="#ffffff" stop-opacity="1"></stop></linearGradient></defs><defs><linearGradient id="grad2_0" x1="0%" y1="0%" x2="67.2%" y2="100%"><stop offset="20.232558139534884%" stop-color="#ffffff" stop-opacity="1"></stop><stop offset="79.76744186046511%" stop-color="#ffffff" stop-opacity="1"></stop></linearGradient></defs><g transform="translate(2560, 0)"><path d="M0 925.2C-131.6 908 -263.2 890.7 -336 811.2C-408.8 731.6 -422.9 589.8 -514.1 514.1C-605.2 438.3 -773.4 428.7 -854.8 354.1C-936.2 279.4 -930.7 139.7 -925.2 0L0 0Z" fill="#a319a1"></path></g><g transform="translate(0, 1720)"><path d="M0 -925.2C84.9 -805.4 169.9 -685.5 262.1 -632.9C354.4 -580.2 453.9 -594.7 563.6 -563.6C673.2 -532.4 792.9 -455.6 854.8 -354.1C916.8 -252.5 921 -126.3 925.2 0L0 0Z" fill="#a319a1"></path></g></svg>