<svg id="visual" viewBox="0 0 1980 1080" width="1980" height="1080" xmlns="http://www.w3.org/2000/svg" xmlns:xlink="http://www.w3.org/1999/xlink" version="1.1"><rect x="0" y="0" width="1980" height="1080" fill="#ffffff"></rect><defs><linearGradient id="grad1_0" x1="45.5%" y1="0%" x2="100%" y2="100%"><stop offset="13.333333333333334%" stop-color="#ffffff" stop-opacity="1"></stop><stop offset="86.66666666666667%" stop-color="#ffffff" stop-opacity="1"></stop></linearGradient></defs><defs><linearGradient id="grad2_0" x1="0%" y1="0%" x2="54.5%" y2="100%"><stop offset="13.333333333333334%" stop-color="#ffffff" stop-opacity="1"></stop><stop offset="86.66666666666667%" stop-color="#ffffff" stop-opacity="1"></stop></linearGradient></defs><g transform="translate(1980, 0)"><path d="M0 702C-71.9 689.6 -143.7 677.2 -210.7 648.6C-277.8 620 -339.9 575.3 -377.4 519.4C-414.8 463.5 -427.4 396.5 -479.7 348.6C-532.1 300.6 -624 271.8 -667.6 216.9C-711.3 162 -706.6 81 -702 0L0 0Z" fill="#a319a1"></path></g><g transform="translate(0, 1080)"><path d="M0 -702C75.3 -678.1 150.5 -654.1 195.9 -603C241.3 -551.8 256.9 -473.4 325 -447.4C393.2 -421.4 514 -447.8 567.9 -412.6C621.8 -377.4 608.9 -280.5 620.1 -201.5C631.3 -122.4 666.6 -61.2 702 0L0 0Z" fill="#a319a1"></path></g></svg>